<svg width="176" height="87" viewBox="0 0 176 87" fill="none" xmlns="http://www.w3.org/2000/svg">
<g clip-path="url(#clip0_1020_889)">
<path d="M49.9499 20.6568C64.3408 21.5255 78.7319 22.2181 88.0224 22.2181C97.3128 22.2181 111.704 21.5255 126.095 20.6568L126.997 0.232189C114.761 0.0760619 101.169 0 88.0224 0C74.8755 0 61.2839 0.080065 49.0477 0.232189L49.9543 20.6568H49.9499Z" fill="white"/>
<path d="M1.54993 17.2476C1.92188 17.2797 24.3933 19.0931 47.5788 20.5223L46.6809 0.277832C26.2189 0.558059 10.0024 1.05446 6.85142 1.75904C1.72949 2.90396 1.02833 6.66702 0.972747 9.17708C0.942819 10.37 0.942819 13.6007 1.28913 17.2276L1.5542 17.2476H1.54993Z" fill="white"/>
<path d="M128.458 20.5263C151.647 19.0931 174.114 17.2797 174.486 17.2516L174.751 17.2196C175.094 13.5967 175.094 10.366 175.064 9.17708C175.008 6.66702 174.307 2.90396 169.181 1.75904C166.03 1.05446 149.813 0.558059 129.351 0.277832L128.453 20.5263H128.458Z" fill="white"/>
<path d="M128.313 22.737L126.393 43.8501C138.142 41.8967 148.779 39.811 153.161 38.7219C162.828 36.324 168.771 33.7059 171.918 28.4697C173.264 26.2238 174.047 22.8171 174.496 19.4543C172.29 19.6305 150.609 21.3639 128.313 22.737Z" fill="white"/>
<path d="M125.935 22.8699C111.6 23.7346 97.2904 24.4191 88.0213 24.4191C78.7522 24.4191 64.4427 23.7346 50.1072 22.8699L52.0483 44.2314C65.567 46.4291 80.0735 48.3626 88.0213 48.3626C95.9694 48.3626 110.48 46.433 123.994 44.2314L125.935 22.8699Z" fill="white"/>
<path d="M47.7294 22.737C25.429 21.3639 3.74847 19.6305 1.54236 19.4543C1.99127 22.8131 2.76939 26.2238 4.12042 28.4697C7.26711 33.7059 13.2056 36.324 22.8766 38.7219C27.2588 39.811 37.8961 41.8967 49.6447 43.8501L47.7294 22.737Z" fill="white"/>
<path d="M5.14357 86.6271C2.82148 86.6271 0.94751 84.8597 0.94751 82.6984V66.7916C0.94751 64.6299 2.83506 62.8625 5.14357 62.8625H34.2579V66.9315H5.74106V82.533H29.4645V76.773H12.3V72.6787H34.2579V86.6146H5.14357V86.6271Z" fill="white"/>
<path d="M45.637 86.6271C43.3283 86.6271 41.4409 84.8597 41.4409 82.6984V62.8625H73.8279V66.9315H46.2343V72.6915H73.0539V76.7856H46.2343V82.5456H73.8279V86.6399H45.6504L45.637 86.6271Z" fill="white"/>
<path d="M123.731 86.6264C121.409 86.6264 119.535 84.859 119.535 82.6976V62.8364H124.329V82.5323H148.188V86.6264H123.731Z" fill="white"/>
<path d="M84.6109 86.6271C82.3023 86.6271 80.4149 84.8597 80.4149 82.6984V62.8625H112.802V66.9315H85.2086V72.6915H112.042V76.7856H85.2086V82.5456H112.802V86.6399H84.6246L84.6109 86.6271Z" fill="white"/>
<path d="M155.062 86.6264V77.5223L139.378 62.8364H145.557L157.466 73.975L169.362 62.8364H175.54L159.856 77.5223V86.6264H155.062Z" fill="white"/>
</g>
<defs>
<clipPath id="clip0_1020_889">
<rect width="174.743" height="86.8523" fill="white" transform="translate(0.947754)"/>
</clipPath>
</defs>
</svg>
