<svg width="347" height="32" viewBox="0 0 347 32" fill="none" xmlns="http://www.w3.org/2000/svg">
<g clip-path="url(#clip0_1539_351)">
<path d="M133.784 31.6462C130.878 31.6462 128.533 29.2949 128.533 26.4192V5.25826C128.533 2.38266 130.895 0.0314331 133.784 0.0314331H170.215V5.44432H134.532V26.1993H164.217V18.5368H142.739V13.09H170.215V31.6291H133.784V31.6462Z" fill="black"/>
<path d="M184.455 31.6462C181.566 31.6462 179.204 29.2949 179.204 26.4192V0.0314331H219.731V5.44432H185.203V13.107H218.762V18.5537H185.203V26.2162H219.731V31.6631H184.472L184.455 31.6462Z" fill="black"/>
<path d="M282.169 31.6485C279.264 31.6485 276.918 29.2974 276.918 26.4218V0H282.918V26.2019H312.772V31.6485H282.169Z" fill="black"/>
<path d="M233.221 31.6462C230.332 31.6462 227.97 29.2949 227.97 26.4192V0.0314331H268.496V5.44432H233.968V13.107H267.545V18.5537H233.968V26.2162H268.496V31.6631H233.238L233.221 31.6462Z" fill="black"/>
<path d="M321.375 31.6485V19.5372L301.75 0H309.481L324.384 14.8178L339.27 0H347L327.375 19.5372V31.6485H321.375Z" fill="black"/>
<path d="M30.1468 13.7708C39.0029 14.3392 47.8593 14.7923 53.5767 14.7923C59.294 14.7923 68.1501 14.3392 77.0063 13.7708L77.5616 0.407772C70.0313 0.305623 61.667 0.255859 53.5767 0.255859C45.486 0.255859 37.1218 0.308242 29.5917 0.407772L30.1494 13.7708H30.1468Z" fill="black"/>
<path d="M0.362614 11.5281C0.591517 11.5491 14.4205 12.7356 28.6888 13.6706L28.1363 0.425415C15.544 0.60876 5.56426 0.933537 3.62515 1.39451C0.47312 2.1436 0.0416219 4.60564 0.00741784 6.24786C-0.0109997 7.02837 -0.0109997 9.14204 0.202118 11.515L0.365244 11.5281H0.362614Z" fill="black"/>
<path d="M78.4647 13.6732C92.7358 12.7356 106.562 11.5491 106.791 11.5307L106.954 11.5098C107.165 9.13943 107.165 7.02576 107.146 6.24786C107.112 4.60564 106.681 2.1436 103.526 1.39451C101.587 0.933537 91.607 0.60876 79.0147 0.425415L78.4622 13.6732H78.4647Z" fill="black"/>
<path d="M78.3751 15.1335L77.1936 28.947C84.4238 27.669 90.9699 26.3043 93.6669 25.5919C99.6157 24.023 103.273 22.3101 105.209 18.8842C106.038 17.4148 106.52 15.1859 106.796 12.9858C105.438 13.101 92.0962 14.2351 78.3751 15.1335Z" fill="black"/>
<path d="M76.9076 15.2291C68.0856 15.7949 59.2795 16.2427 53.5751 16.2427C47.871 16.2427 39.0649 15.7949 30.2427 15.2291L31.4374 29.205C39.7568 30.643 48.684 31.9081 53.5751 31.9081C58.4663 31.9081 67.3963 30.6455 75.7132 29.205L76.9076 15.2291Z" fill="black"/>
<path d="M28.7774 15.1335C15.0536 14.2351 1.7114 13.101 0.35376 12.9858C0.630023 15.1833 1.10888 17.4148 1.9403 18.8842C3.87678 22.3101 7.53135 24.023 13.4829 25.5919C16.1797 26.3043 22.7259 27.669 29.956 28.947L28.7774 15.1335Z" fill="black"/>
</g>
<defs>
<clipPath id="clip0_1539_351">
<rect width="347" height="32" fill="white"/>
</clipPath>
</defs>
</svg>
