<svg xmlns="http://www.w3.org/2000/svg" viewBox="0 0 542.18 92.97"><defs><style>.cls-1{fill:none;}</style></defs><g id="Capa_2" data-name="Capa 2"><g id="Capa_1-2" data-name="Capa 1"><g id="Capa_2-2" data-name="Capa 2"><rect class="cls-1" width="292.15" height="92.97"/><path d="M126.91.14c-.13.13-10.51.32-23.09.36L81,.59l.32,8.92C81.63,19.7,82,29,82.21,33c.09,1.5.18,3.09.18,3.5,0,1,.85,1.09,20.08,2.18,35,2,52.57,2,83.3.23,6.29-.36,13.7-.82,16.4-1,6.24-.36,7.37-.45,7.59-.68S211,12,211.11,5.3V.89L207.56.68C201.54.41,127.14-.14,126.91.14Z"/><path d="M49.42,1.23c-9.75.23-29.88,1.14-34.15,1.5-6.38.64-9,1.55-11.55,4.14C.58,10.05.08,12.19.31,22.29c.09,4.64.31,8.32.58,8.6a18.07,18.07,0,0,0,4.5.72c2.24.14,6.15.46,8.76.69,5.43.5,6.69.59,21.79,1.82,6.2.45,13.25,1,15.72,1.13s6.92.46,9.89.69,7.09.54,9.21.72,4.58.32,5.52.41l1.66.14V35.12c0-1.19-.31-8.51-.67-16.24s-.67-15-.67-16.06V.87L65.27,1Z"/><path d="M215,16.65c-.32,8.73-.63,16.79-.72,17.88a9,9,0,0,0,0,2.32,19.27,19.27,0,0,0,4.36-.05c2.29-.18,6.29-.45,8.89-.59l7-.5,5.84-.41c5.34-.36,31.94-2.5,42.23-3.37l9-.77.27-2.73c.54-5.5.14-15.33-.72-17.69a11.26,11.26,0,0,0-6.6-6.55c-4.31-1.64-19.36-2.55-51.62-3.09L215.6.78Z"/><path d="M1.34,37.39c1.21,8,3.15,13.42,6.07,17.33,5.39,7.19,15.09,12,33.42,16.47,12.18,3,40.17,8.5,40.44,8,.09-.13-.18-4.59-.63-9.82s-1.17-13.65-1.57-18.65-.77-9.1-.81-9.14-6.56-.5-14.47-1S48.43,39.49,47.17,39.4s-3.78-.32-5.62-.46-4.49-.31-5.84-.45-3.77-.32-5.39-.46C16.84,37,3.77,35.89,2.55,35.66L1,35.44Z"/><path d="M281.25,36.39c-4.95.45-10.79,1-13,1.14s-4.86.36-5.84.45-3.51.27-5.62.46-4.81.36-6.07.45c-2.78.27-4.67.41-22.24,1.64-7.77.54-14.24,1-14.28,1.14S211,76.05,211,78.05v1.41L219,78c4.4-.82,13-2.55,19.18-3.87C264,68.68,274.19,65,281.29,58.49c5.21-4.77,7.41-9.14,9.12-18.14.77-4.1.77-5,.09-4.83C290.37,35.57,286.19,36,281.25,36.39Z"/><path d="M83,46c.36,5.73,2.52,31.16,2.79,32.93l.21,1.4,6.2,1c9.89,1.64,26.15,4,35.14,5.1a173.26,173.26,0,0,0,35.71.27c14.92-1.77,42.37-6,43-6.64a11,11,0,0,0,.54-2.78c.27-2.68.27-2.77,1.62-19.33.49-6,1-12.1,1.16-13.6l.27-2.63-4.85.31c-2.69.19-5.79.37-6.92.46s-4.62.27-7.86.45-6.6.37-7.55.46c-12.22,1.14-57.28,1.14-72.87,0-1.21-.09-4.58-.27-7.41-.46s-6.38-.36-7.87-.45-4.71-.32-7.14-.46l-4.45-.31Z"/><path d="M323.88,20.9c-2.58,1.46-2.58,1.57-2.58,15.2s0,13.74,2.58,15.2l1.33.78h37.91V33.38l-13.67.07-13.7.1v5.1l10.81.1,10.78.07v7.82H327.08V36.1c0-5.81.1-10.54.27-10.54s8.19,0,17.92-.1L363,25.39l.1-2.65.1-2.62h-38Z"/><path d="M372.64,34.16c0,15.85,0,15.68,2.62,17.14,1.36.78,1.36.78,19.69.78h18.33V46.81l-17.41-.1-17.45-.07V38.82l16.94-.06,16.9-.11v-5.1l-16.94-.1-16.93-.07.1-3.94.1-3.91,17.35-.07,17.34-.07.1-2.65.1-2.62H372.64Z"/><path d="M422,34.47c.1,13.77.13,14.42.78,15.3a7,7,0,0,0,1.9,1.6c1.23.71,1.67.71,19.66.71h18.39V46.64h-35V38.82l16.93-.07,16.9-.1.1-2.65.11-2.62H427.69l.11-3.91.1-3.94,17.34-.07,17.34-.07.1-2.65.11-2.62H421.91Z"/><path d="M471.59,34.27c0,13.8,0,14.21.71,15.33a6.27,6.27,0,0,0,2,1.8c1.23.65,2,.68,17.31.68h16V46.64H477.37V20.12h-5.78Z"/><path d="M506.71,29.91l9.76,9.76v6.16c0,3.36.07,6.22.14,6.29a15.5,15.5,0,0,0,2.89,0l2.75-.13V40l9.93-9.93,10-10h-7.49l-7.54,7.55-7.59,7.58L512,27.67l-7.55-7.55H497Z"/></g></g></g></svg>